<svg width="121" height="62" viewBox="0 0 121 62" fill="none" xmlns="http://www.w3.org/2000/svg">
<path d="M14.7125 36.8154C19.9685 41.4223 35.5022 49.1116 35.7533 49.2289C37.7787 50.2173 34.5983 55.0587 33.0081 55.0252C30.2294 55.0252 13.5408 44.9738 7.89977 39.948C7.46457 43.7118 7.30786 47.5025 7.43104 51.2894C7.43104 52.5458 5.4224 52.5793 3.48069 52.6966C1.53898 52.8138 0.132925 52.6966 0.0324915 51.7082C-0.586846 32.1917 7.7156 12.8092 19.1482 3.51165C26.212 -2.23441 38.2975 -1.3968 36.5064 9.52574C35.0167 18.5553 26.279 31.0693 14.7459 36.8154H14.7125ZM9.33929 32.6105C22.0106 28.3889 33.5269 9.77703 29.8444 6.59408C26.1618 3.41113 13.909 14.7357 9.33929 32.6105ZM118.527 21.3361C116.97 20.7833 114.811 20.7498 114.526 22.0732C112.601 30.751 109.27 40.2663 105.37 39.0602C103.696 38.5241 102.625 36.6813 106.274 25.4907C106.676 24.2343 105.722 23.6312 104.299 23.0952C102.876 22.5591 101.269 22.8104 100.951 23.6982C97.0509 33.3141 93.9374 38.7754 91.1253 38.2225C87.9784 37.586 92.7155 27.6015 93.4185 26.1608C94.1216 24.7201 92.2636 23.983 91.3429 23.6145C90.4223 23.2459 88.9158 22.6093 88.3969 23.6145C88.196 23.9495 87.7441 24.8709 87.4763 25.407C87.6269 21.4367 83.8272 19.1583 79.7764 20.9173C72.3946 24.1338 68.4275 32.309 67.9253 37.1337C67.624 39.9648 68.3605 43.1477 71.1726 44.4879C76.4454 46.984 82.237 40.6684 83.8272 37.3514C83.6598 41.3218 86.2209 43.7676 89.4682 43.6503C93.904 43.4995 97.1011 39.1607 98.005 37.2342C97.3019 43.7843 103.512 46.2804 108.048 43.0975C105.364 48.2849 101.985 53.0812 98.005 57.3537C96.8667 58.6101 98.4402 60.1849 99.0094 60.7042C99.9467 61.6256 101.319 62.3795 102.123 61.7931C104.55 60.1179 109.321 54.7906 114.627 44.3539C117.553 38.0595 119.662 31.4163 120.904 24.5861C121.239 22.9109 120.753 22.09 118.594 21.3361H118.527ZM75.0728 38.3231C73.717 37.3682 75.0728 33.1801 76.6463 30.7008C78.8223 27.099 82.17 24.4353 83.6096 25.5745C85.8359 27.2497 82.7559 31.6891 81.1824 34.3192C79.609 36.9493 76.8304 39.5627 75.0728 38.3231ZM56.8609 34.1015C51.7388 42.5949 45.1437 45.2418 40.574 45.3758C39.2161 45.4417 37.86 45.2148 36.5974 44.7107C35.3347 44.2065 34.1951 43.4367 33.2555 42.4535C32.3159 41.4702 31.5983 40.2965 31.1513 39.0116C30.7043 37.7267 30.5383 36.3607 30.6646 35.0061C30.8703 31.9592 31.9185 29.0295 33.6921 26.5445C35.4656 24.0595 37.8947 22.117 40.7079 20.9341C46.2819 18.8568 51.3538 22.9276 50.2658 27.635C49.9892 29.0308 49.4373 30.3573 48.6425 31.537C47.8477 32.7168 46.8258 33.7262 45.6367 34.5061C44.4475 35.286 43.1149 35.8208 41.7168 36.0792C40.3187 36.3377 38.8831 36.3145 37.4941 36.0112C37.7786 39.3617 41.3608 41.2212 46.4159 38.6246C49.7637 36.9494 53.4796 33.5989 56.9948 25.1222C59.606 18.7563 63.3221 5.6727 64.9792 2.77454C65.4647 1.93692 67.1888 2.17147 68.6618 2.89182C70.1348 3.61217 71.6413 4.65079 71.1726 5.95748C68.1176 13.6802 65.7701 21.6649 64.159 29.8129C62.8403 36.4679 63.006 43.3322 64.6444 49.9157C65.0127 51.3062 63.2552 52.1773 62.1839 52.395C61.5372 52.5873 60.8465 52.571 60.2096 52.3485C59.5727 52.126 59.0219 51.7086 58.6352 51.1554C55.8566 46.1297 56.1578 39.948 56.8107 34.135L56.8609 34.1015ZM37.3769 32.2252C42.5324 33.9004 47.1021 28.2549 45.5119 25.9598C43.9217 23.6647 38.0632 26.1943 37.3769 32.2252Z" fill="#004822"/>
</svg>
